<svg xmlns="http://www.w3.org/2000/svg" xmlns:xlink="http://www.w3.org/1999/xlink" version="1.1" id="Your_Icon" x="0px" y="0px" width="100px" height="100px" viewBox="5.0 -10.0 100.0 135.0" enable-background="new 0 0 100 100" xml:space="preserve">
<g>
	<path fill="none" d="M11.657,98.634c-0.251,0.048-0.506,0.048-0.759,0.073C11.15,98.682,11.406,98.682,11.657,98.634z"/>
	<path fill="none" d="M15.722,96.473c-1.06,1.059-2.353,1.727-3.71,2.057C13.37,98.199,14.662,97.531,15.722,96.473z"/>
	<path fill="none" d="M93.111,92.93c0.821-0.817,0.818-2.145,0-2.962c-0.814-0.816-2.141-0.816-2.962,0   c-0.815,0.819-0.815,2.145,0,2.962C90.971,93.744,92.294,93.748,93.111,92.93z"/>
	<path fill="none" d="M10.15,98.778L10.15,98.778c-0.242,0-0.482-0.047-0.724-0.07C9.668,98.731,9.908,98.778,10.15,98.778z"/>
	<path fill="none" d="M8.647,98.635c-0.125-0.024-0.244-0.079-0.367-0.109C8.403,98.556,8.522,98.61,8.647,98.635z"/>
	<path fill="none" d="M7.188,98.203c-0.037-0.017-0.069-0.04-0.106-0.057C7.119,98.163,7.152,98.188,7.188,98.203z"/>
	<path d="M86.13,96.62c2.948,2.949,7.723,2.949,10.675,0c2.943-2.945,2.943-7.725-0.003-10.672L60.876,50.021L50.204,60.693   L86.13,96.62z M89.411,89.229c1.229-1.224,3.218-1.224,4.438,0c1.227,1.227,1.23,3.212,0,4.438c-1.227,1.224-3.209,1.222-4.438,0   C88.19,92.442,88.19,90.456,89.411,89.229z"/>
	<path d="M40.809,29.953c3.006-7.208,1.585-15.828-4.281-21.692c-5.865-5.866-14.483-7.286-21.692-4.28l6.934,6.934l7.946,7.947   l-10.673,10.67l0,0.002L4.165,14.654C1.16,21.863,2.58,30.481,8.445,36.346c5.864,5.865,14.483,7.286,21.692,4.279l10.229,10.23   l10.672-10.673L40.809,29.953z"/>
	<path d="M98.75,8.437l-6.127-6.127l-15.098,8.975l-1.048,7.171l0.551,0.552L28.841,67.193l-3.057-3.056l-21.2,21.198   c-3.074,3.075-3.076,8.06,0,11.14c0.739,0.738,1.592,1.288,2.499,1.671c0.037,0.017,0.069,0.04,0.106,0.057   c0.354,0.143,0.723,0.232,1.091,0.322c0.124,0.03,0.243,0.085,0.367,0.109c0.258,0.051,0.52,0.051,0.78,0.073   c0.242,0.023,0.482,0.07,0.725,0.07c0.25,0,0.497-0.049,0.747-0.071c0.252-0.025,0.508-0.025,0.759-0.073   c0.121-0.023,0.235-0.075,0.355-0.104c1.357-0.33,2.65-0.998,3.71-2.057l21.201-21.197l-3.059-3.059l48.189-48.186l0.552,0.552   l7.171-1.047L98.75,8.437z"/>
</g>
</svg>