<svg xmlns="http://www.w3.org/2000/svg" xmlns:xlink="http://www.w3.org/1999/xlink" version="1.1" id="Layer_1" x="0px" y="0px" width="100px" height="100px" viewBox="5.0 -10.0 100.0 135.0" enable-background="new 0 0 100 100" xml:space="preserve">
<path d="M89.375,52.5l-1.125-3.25l1.375-4.375c0,0-3.5-3.875-4.5-4.375s-5,1.875-7.752,2.824c-1.375-0.361-2.562-0.673-3.402-0.914  c-0.559-0.16-2.908-1.546-4.98-2.769c-6.297-3.714-11.305-6.556-13.725-6.556c-10.958,0-23.138,0.187-30.397,1.568  c-0.604,0.114-1.025,0.539-1.364,0.879c-0.067,0.067-0.158,0.16-0.224,0.218c-5.172,1.105-9.885,3.575-13.285,6.966  C4.433,48.28,4.433,49.95,4.433,50.58v8.645l0.236,0.32c2.011,2.721,10.257,2.991,10.338,2.991c0.06,0,0.409-0.001,1.007-0.004  c1.379,2.604,4.115,4.384,7.261,4.384c3.178,0,5.935-1.816,7.3-4.465c7.489-0.042,16.818-0.096,26.007-0.146  c4.184-0.022,8.312-0.047,12.213-0.068c1.371,2.769,4.219,4.681,7.512,4.681c3.325,0,6.196-1.951,7.551-4.765  c0,0,4.829-3.919,5.143-4.277c0.671-0.769,0.25-2-0.375-3.125L89.375,52.5z M76.307,63.626c-2.811,0-5.096-2.285-5.096-5.095  s2.285-5.094,5.096-5.094c2.809,0,5.096,2.284,5.096,5.094C81.4,61.341,79.115,63.626,76.307,63.626z M23.279,63.626  c-2.811,0-5.096-2.285-5.096-5.095s2.285-5.094,5.096-5.094c2.809,0,5.096,2.284,5.096,5.094  C28.373,61.341,26.088,63.626,23.279,63.626z"/>
<g>
	<path d="M80.599,36.167c-0.15,0-0.303-0.034-0.446-0.105c-0.494-0.247-0.694-0.848-0.447-1.342c1.324-2.648,1.324-3.792,0-6.439   c-1.614-3.229-1.614-4.998,0-8.228c0.247-0.494,0.848-0.695,1.342-0.448c0.494,0.247,0.694,0.848,0.447,1.341   c-1.323,2.648-1.323,3.792,0,6.439c1.615,3.229,1.615,4.998,0,8.228C81.318,35.965,80.966,36.167,80.599,36.167z"/>
</g>
<g>
	<path d="M84.999,36.167c-0.15,0-0.303-0.034-0.446-0.105c-0.494-0.247-0.694-0.848-0.447-1.342c1.324-2.648,1.324-3.792,0-6.439   c-1.615-3.229-1.615-4.998,0-8.228c0.248-0.494,0.847-0.695,1.342-0.447c0.494,0.247,0.694,0.848,0.447,1.342   c-1.324,2.648-1.324,3.792,0,6.439c1.615,3.229,1.615,4.998,0,8.228C85.719,35.965,85.366,36.167,84.999,36.167z"/>
</g>
<g>
	<path d="M89.399,36.167c-0.15,0-0.303-0.034-0.446-0.105c-0.494-0.247-0.694-0.848-0.447-1.341c1.323-2.648,1.323-3.792,0-6.439   c-1.615-3.229-1.615-4.998,0-8.228c0.247-0.494,0.848-0.695,1.342-0.447c0.494,0.247,0.694,0.848,0.447,1.342   c-1.324,2.648-1.324,3.792,0,6.439c1.614,3.229,1.614,4.998,0,8.228C90.12,35.964,89.767,36.167,89.399,36.167z"/>
</g>
<text x="0.0" y="117.5" font-size="5.0" font-weight="bold" font-family="Helvetica Neue, Helvetica, Arial-Unicode, Arial, Sans-serif" fill="#000000">Created by Desbenoit</text><text x="0.0" y="122.5" font-size="5.0" font-weight="bold" font-family="Helvetica Neue, Helvetica, Arial-Unicode, Arial, Sans-serif" fill="#000000">from the Noun Project</text></svg>