<svg xmlns:dc="http://purl.org/dc/elements/1.1/" xmlns:cc="http://creativecommons.org/ns#" xmlns:rdf="http://www.w3.org/1999/02/22-rdf-syntax-ns#" xmlns:svg="http://www.w3.org/2000/svg" xmlns="http://www.w3.org/2000/svg" xmlns:sodipodi="http://sodipodi.sourceforge.net/DTD/sodipodi-0.dtd" xmlns:inkscape="http://www.inkscape.org/namespaces/inkscape" version="1.1" id="Your_Icon" x="0px" y="0px" width="100px" height="100px" viewBox="5.0 -10.0 100.0 135.0" enable-background="new 0 0 100 100" xml:space="preserve" inkscape:version="0.48.4 r9939" sodipodi:docname="police_hatchback_car.svg"><metadata id="metadata13"><rdf:RDF><cc:Work rdf:about=""><dc:format>image/svg+xml</dc:format><dc:type rdf:resource="http://purl.org/dc/dcmitype/StillImage"/><dc:title/></cc:Work></rdf:RDF></metadata><defs id="defs11"/><sodipodi:namedview pagecolor="#ffffff" bordercolor="#666666" borderopacity="1" objecttolerance="10" gridtolerance="10" guidetolerance="10" inkscape:pageopacity="0" inkscape:pageshadow="2" inkscape:window-width="1411" inkscape:window-height="782" id="namedview9" showgrid="false" inkscape:zoom="1.18" inkscape:cx="-25.074002" inkscape:cy="79.076061" inkscape:window-x="0" inkscape:window-y="0" inkscape:window-maximized="0" inkscape:current-layer="Your_Icon"/>
<path fill-rule="evenodd" clip-rule="evenodd" d="M19.972,54.281c4.732,0,8.567,3.834,8.567,8.566s-3.835,8.568-8.567,8.568  c-4.73,0-8.567-3.836-8.567-8.568S15.241,54.281,19.972,54.281L19.972,54.281z M19.972,58.854c-2.205,0-3.992,1.789-3.992,3.994  s1.787,3.994,3.992,3.994c2.206,0,3.994-1.789,3.994-3.994S22.178,58.854,19.972,58.854z" id="path3"/>
<path fill-rule="evenodd" clip-rule="evenodd" d="M82.866,54.281c4.732,0,8.567,3.834,8.567,8.566s-3.835,8.568-8.567,8.568  c-4.73,0-8.566-3.836-8.566-8.568S78.136,54.281,82.866,54.281L82.866,54.281z M82.866,58.854c-2.205,0-3.993,1.789-3.993,3.994  s1.788,3.994,3.993,3.994c2.206,0,3.994-1.789,3.994-3.994S85.072,58.854,82.866,58.854z" id="path5"/>
<path d="M 40 28.59375 L 25.71875 42.875 L 0 45.75 L 0 48.90625 L 0 62.8125 L 10.125 68.59375 C 9.137 66.90875 8.59375 64.93975 8.59375 62.84375 C 8.59375 56.55275 13.67975 51.46875 19.96875 51.46875 C 26.25975 51.46875 31.375 56.55275 31.375 62.84375 C 31.375 64.93975 30.7995 66.90775 29.8125 68.59375 L 73.28125 68.59375 C 72.27325 66.91575 71.6875 64.94575 71.6875 62.84375 C 71.6875 56.66475 76.696 51.65625 82.875 51.65625 C 89.054 51.65625 94.0625 56.66375 94.0625 62.84375 C 94.0625 64.94475 93.47475 66.91575 92.46875 68.59375 L 100 62.875 L 100 45.71875 L 74.28125 28.59375 C 54.19525 28.58975 54.205 28.59775 40 28.59375 z M 42.875 31.4375 L 57.15625 31.4375 L 57.15625 42.875 L 31.4375 42.875 L 42.875 31.4375 z M 59.96875 31.4375 L 71.46875 31.4375 L 82.90625 42.875 L 59.96875 42.875 L 59.96875 31.4375 z M 48.4375 46.71875 L 53.75 46.71875 L 53.75 53.21875 L 60.21875 53.21875 L 60.21875 58.53125 L 53.75 58.53125 L 53.75 65.03125 L 48.4375 65.03125 L 48.4375 58.53125 L 41.9375 58.53125 L 41.9375 53.21875 L 48.4375 53.21875 L 48.4375 46.71875 z " id="path7"/>
</svg>